<svg version="1.1" xmlns="http://www.w3.org/2000/svg" xmlns:xlink="http://www.w3.org/1999/xlink" width="573" height="704"><defs/><g><g/><g/><g/><g/><g/><g/><g/><g/><g/><g/><g/><g><rect fill="white" stroke="none" x="0" y="0" width="573" height="704"/></g><g/><g><path fill="none" stroke="black" paint-order="fill stroke markers" d=" M 117.14110218117187 50.815047804 L 117.14110218117187 704.5865916850821" stroke-miterlimit="10" stroke-width="1.2565541" stroke-dasharray="11.598960923076923,5.0262164"/><path fill="none" stroke="black" paint-order="fill stroke markers" d=" M 307.05083032941405 50.815047804 L 307.05083032941405 704.5865916850821" stroke-miterlimit="10" stroke-width="1.2565541" stroke-dasharray="11.598960923076923,5.0262164"/><path fill="none" stroke="black" paint-order="fill stroke markers" d=" M 499.32722717882814 50.815047804 L 499.32722717882814 704.5865916850821" stroke-miterlimit="10" stroke-width="1.2565541" stroke-dasharray="11.598960923076923,5.0262164"/></g><g><path fill="none" stroke="none"/><g><path fill="white" stroke="black" paint-order="fill stroke markers" d=" M 63.030767799171876 10.102694964000001 L 171.25143656317186 10.102694964000001 L 171.25143656317186 50.815047804 L 63.030767799171876 50.815047804 L 63.030767799171876 10.102694964000001 Z" stroke-miterlimit="10" stroke-width="2.4125838720000004" stroke-dasharray=""/></g><g><g/><text fill="black" stroke="none" font-family="sans-serif" font-size="11pt" font-style="normal" font-weight="normal" text-decoration="normal" x="79.39110218117187" y="35.736398604" text-anchor="start" dominant-baseline="alphabetic" xml:space="preserve">Developer</text></g><path fill="none" stroke="none"/><g><path fill="white" stroke="black" paint-order="fill stroke markers" d=" M 251.66549442153516 10.102694964000001 L 362.436166237293 10.102694964000001 L 362.436166237293 50.815047804 L 251.66549442153516 50.815047804 L 251.66549442153516 10.102694964000001 Z" stroke-miterlimit="10" stroke-width="2.4125838720000004" stroke-dasharray=""/></g><g><g/><text fill="black" stroke="none" font-family="sans-serif" font-size="11pt" font-style="normal" font-weight="normal" text-decoration="normal" x="268.02582880353515" y="35.736398604" text-anchor="start" dominant-baseline="alphabetic" xml:space="preserve">Repository</text></g><path fill="none" stroke="none"/><g><path fill="white" stroke="black" paint-order="fill stroke markers" d=" M 432.62522562153515 10.102694964000001 L 566.0292287361211 10.102694964000001 L 566.0292287361211 50.815047804 L 432.62522562153515 50.815047804 L 432.62522562153515 10.102694964000001 Z" stroke-miterlimit="10" stroke-width="2.4125838720000004" stroke-dasharray=""/></g><g><g/><text fill="black" stroke="none" font-family="sans-serif" font-size="11pt" font-style="normal" font-weight="normal" text-decoration="normal" x="448.98556000353517" y="35.736398604" text-anchor="start" dominant-baseline="alphabetic" xml:space="preserve">Ansible Tower</text></g></g><g><g><g><rect fill="white" stroke="none" x="152.6008352876465" y="80.972346204" width="118.99026193529296" height="19.602243960000003"/></g><text fill="black" stroke="none" font-family="sans-serif" font-size="11pt" font-style="normal" font-weight="normal" text-decoration="normal" x="154.8626326676465" y="94.543130484" text-anchor="start" dominant-baseline="alphabetic" xml:space="preserve">change request</text></g><g><path fill="none" stroke="black" paint-order="fill stroke markers" d=" M 117.14110218117187 97.5795370351331 L 304.5377221294141 112.45864786856842" stroke-miterlimit="10" stroke-width="1.2565541" stroke-dasharray=""/><g transform="translate(307.05083032941405,112.6581862351331) rotate(4.539705853933446,0,0) translate(-307.05083032941405,-112.6581862351331)"><path fill="black" stroke="none" paint-order="stroke fill markers" d=" M 294.48528932941406 106.3754157351331 L 307.05083032941405 112.6581862351331 L 294.48528932941406 118.9409567351331 Z"/><g transform="rotate(-4.539705853933446,0,0)"/></g></g><path fill="white" stroke="black" paint-order="fill stroke markers" d=" M 212.48238557294923 135.2761600351331 L 388.04849080587894 135.2761600351331 L 401.61927508587894 148.8469443151331 L 401.61927508587894 169.9570531951331 L 212.48238557294923 169.9570531951331 L 212.48238557294923 135.2761600351331 M 388.04849080587894 135.2761600351331 L 388.04849080587894 148.8469443151331 L 401.61927508587894 148.8469443151331" stroke-miterlimit="10" stroke-width="1.2565541" stroke-dasharray=""/><g><text fill="black" stroke="none" font-family="sans-serif" font-size="11pt" font-style="normal" font-weight="normal" text-decoration="normal" x="233.5924944529492" y="156.38626891513312" text-anchor="start" dominant-baseline="alphabetic" xml:space="preserve">pipeline is triggered</text></g><g><g><rect fill="white" stroke="none" x="324.893898549414" y="192.5750269951331" width="156.59026040941407" height="19.602243960000003"/></g><text fill="black" stroke="none" font-family="sans-serif" font-size="11pt" font-style="normal" font-weight="normal" text-decoration="normal" x="327.15569592941404" y="206.1458112751331" text-anchor="start" dominant-baseline="alphabetic" xml:space="preserve">requests / responses</text></g><g><path fill="none" stroke="black" paint-order="fill stroke markers" d=" M 307.05083032941405 212.1772709551331 L 496.81411897882816 212.1772709551331" stroke-miterlimit="10" stroke-width="1.2565541" stroke-dasharray=""/><g transform="translate(499.32722717882814,212.1772709551331) translate(-499.32722717882814,-212.1772709551331)"><path fill="black" stroke="none" paint-order="stroke fill markers" d=" M 486.76168617882814 205.8945004551331 L 499.32722717882814 212.1772709551331 L 486.76168617882814 218.4600414551331 Z"/><g transform="translate(307.05083032941405,212.1772709551331) translate(-307.05083032941405,-212.1772709551331)"><path fill="black" stroke="none" paint-order="stroke fill markers" d=" M 319.61637132941405 205.8945004551331 L 307.05083032941405 212.1772709551331 L 319.61637132941405 218.4600414551331 Z"/></g></g></g><path fill="white" stroke="black" paint-order="fill stroke markers" d=" M 225.52405351118165 234.7952447551331 L 375.0068228676465 234.7952447551331 L 388.5776071476465 248.3660290351331 L 388.5776071476465 269.4761379151331 L 225.52405351118165 269.4761379151331 L 225.52405351118165 234.7952447551331 M 375.0068228676465 234.7952447551331 L 375.0068228676465 248.3660290351331 L 388.5776071476465 248.3660290351331" stroke-miterlimit="10" stroke-width="1.2565541" stroke-dasharray=""/><g><text fill="black" stroke="none" font-family="sans-serif" font-size="11pt" font-style="normal" font-weight="normal" text-decoration="normal" x="246.63416239118163" y="255.9053536351331" text-anchor="start" dominant-baseline="alphabetic" xml:space="preserve">pipeline finished</text></g><g><g><rect fill="white" stroke="none" x="199.2508358598511" y="292.0941117151331" width="25.69026079088379" height="19.602243960000003"/></g><text fill="black" stroke="none" font-family="sans-serif" font-size="11pt" font-style="normal" font-weight="normal" text-decoration="normal" x="201.51263323985108" y="305.6648959951332" text-anchor="start" dominant-baseline="alphabetic" xml:space="preserve">OK</text></g><g><path fill="none" stroke="black" paint-order="fill stroke markers" d=" M 307.05083032941405 304.9973375063132 L 119.65421038117188 319.8764483397485" stroke-miterlimit="10" stroke-width="1.2565541" stroke-dasharray="6.03145968"/><g transform="translate(117.14110218117187,320.0759867063132) rotate(-4.539705853933446,0,0) translate(-117.14110218117187,-320.0759867063132)"><path fill="black" stroke="none" paint-order="stroke fill markers" d=" M 129.70664318117187 313.79321620631316 L 117.14110218117187 320.0759867063132 L 129.70664318117187 326.3587572063132 Z"/><g transform="rotate(4.539705853933446,0,0)"/></g></g><path fill="white" stroke="black" paint-order="fill stroke markers" d=" M 7.5393246000000005 342.6939605063132 L 213.17209548234376 342.6939605063132 L 226.74287976234376 356.2647447863132 L 226.74287976234376 377.3748536663132 L 7.5393246000000005 377.3748536663132 L 7.5393246000000005 342.6939605063132 M 213.17209548234376 342.6939605063132 L 213.17209548234376 356.2647447863132 L 226.74287976234376 356.2647447863132" stroke-miterlimit="10" stroke-width="1.2565541" stroke-dasharray=""/><g><text fill="black" stroke="none" font-family="sans-serif" font-size="11pt" font-style="normal" font-weight="normal" text-decoration="normal" x="28.64943348" y="363.80406938631324" text-anchor="start" dominant-baseline="alphabetic" xml:space="preserve">developer did a mistake</text></g><g><g><rect fill="white" stroke="none" x="134.9841704011719" y="399.9928274663132" width="154.2235917082422" height="19.602243960000003"/></g><text fill="black" stroke="none" font-family="sans-serif" font-size="11pt" font-style="normal" font-weight="normal" text-decoration="normal" x="137.24596778117188" y="413.5636117463132" text-anchor="start" dominant-baseline="alphabetic" xml:space="preserve">get artifacts request</text></g><g><path fill="none" stroke="black" paint-order="fill stroke markers" d=" M 117.14110218117187 417.99876449379576 L 304.5377221294141 432.87787532723104" stroke-miterlimit="10" stroke-width="1.2565541" stroke-dasharray=""/><g transform="translate(307.05083032941405,433.07741369379573) rotate(4.539705853933446,0,0) translate(-307.05083032941405,-433.07741369379573)"><path fill="black" stroke="none" paint-order="stroke fill markers" d=" M 294.48528932941406 426.7946431937957 L 307.05083032941405 433.07741369379573 L 294.48528932941406 439.36018419379576 Z"/><g transform="rotate(-4.539705853933446,0,0)"/></g></g><g><g><rect fill="white" stroke="none" x="144.61750170000002" y="455.69538749379575" width="134.95692911058595" height="19.602243960000003"/></g><text fill="black" stroke="none" font-family="sans-serif" font-size="11pt" font-style="normal" font-weight="normal" text-decoration="normal" x="146.87929908" y="469.2661717737958" text-anchor="start" dominant-baseline="alphabetic" xml:space="preserve">artifacts (archive)</text></g><g><path fill="none" stroke="black" paint-order="fill stroke markers" d=" M 307.05083032941405 472.93644730988535 L 119.65421038117188 487.8155581433207" stroke-miterlimit="10" stroke-width="1.2565541" stroke-dasharray="6.03145968"/><g transform="translate(117.14110218117187,488.0150965098854) rotate(-4.539705853933446,0,0) translate(-117.14110218117187,-488.0150965098854)"><path fill="black" stroke="none" paint-order="stroke fill markers" d=" M 129.70664318117187 481.73232600988536 L 117.14110218117187 488.0150965098854 L 129.70664318117187 494.2978670098854 Z"/><g transform="rotate(4.539705853933446,0,0)"/></g></g><g><g><rect fill="white" stroke="none" x="134.9841704011719" y="510.6330703098854" width="56.55692758470703" height="19.602243960000003"/></g><text fill="black" stroke="none" font-family="sans-serif" font-size="11pt" font-style="normal" font-weight="normal" text-decoration="normal" x="137.24596778117188" y="524.2038545898854" text-anchor="start" dominant-baseline="alphabetic" xml:space="preserve">extract</text></g><g><path fill="none" stroke="black" paint-order="fill stroke markers" d=" M 117.14110218117187 530.2353142698854 L 177.45569898117188 530.2353142698854 L 177.45569898117188 549.8375582298854 L 119.65421038117188 549.8375582298854" stroke-miterlimit="10" stroke-width="1.2565541" stroke-dasharray=""/><g transform="translate(117.14110218117187,549.8375582298854) translate(-117.14110218117187,-549.8375582298854)"><path fill="black" stroke="none" paint-order="stroke fill markers" d=" M 129.70664318117187 543.5547877298854 L 117.14110218117187 549.8375582298854 L 129.70664318117187 556.1203287298854 Z"/></g></g><g><g><rect fill="white" stroke="none" x="254.33903218647467" y="572.4555320298854" width="107.79026498705078" height="19.602243960000003"/></g><text fill="black" stroke="none" font-family="sans-serif" font-size="11pt" font-style="normal" font-weight="normal" text-decoration="normal" x="256.60082956647466" y="586.0263163098854" text-anchor="start" dominant-baseline="alphabetic" xml:space="preserve">restore assets</text></g><g><path fill="none" stroke="black" paint-order="fill stroke markers" d=" M 117.14110218117187 586.5555764875264 L 496.81411897882816 601.5350743199834" stroke-miterlimit="10" stroke-width="1.2565541" stroke-dasharray=""/><g transform="translate(499.32722717882814,601.6342256875264) rotate(2.2593575550803924,0,0) translate(-499.32722717882814,-601.6342256875264)"><path fill="black" stroke="none" paint-order="stroke fill markers" d=" M 486.76168617882814 595.3514551875264 L 499.32722717882814 601.6342256875264 L 486.76168617882814 607.9169961875264 Z"/><g transform="rotate(-2.2593575550803924,0,0)"/></g></g><g><g><rect fill="white" stroke="none" x="295.38903428455814" y="624.2521994875264" width="25.69026079088379" height="19.602243960000003"/></g><text fill="black" stroke="none" font-family="sans-serif" font-size="11pt" font-style="normal" font-weight="normal" text-decoration="normal" x="297.65083166455815" y="637.8229837675264" text-anchor="start" dominant-baseline="alphabetic" xml:space="preserve">OK</text></g><g><path fill="none" stroke="black" paint-order="fill stroke markers" d=" M 499.32722717882814 636.7326702850821 L 119.65421038117188 651.7121681175391" stroke-miterlimit="10" stroke-width="1.2565541" stroke-dasharray="6.03145968"/><g transform="translate(117.14110218117187,651.8113194850821) rotate(-2.2593575550803924,0,0) translate(-117.14110218117187,-651.8113194850821)"><path fill="black" stroke="none" paint-order="stroke fill markers" d=" M 129.70664318117187 645.5285489850821 L 117.14110218117187 651.8113194850821 L 129.70664318117187 658.0940899850821 Z"/><g transform="rotate(2.2593575550803924,0,0)"/></g></g></g><g/><g/><g/></g></svg>