<svg version="1.1" xmlns="http://www.w3.org/2000/svg" xmlns:xlink="http://www.w3.org/1999/xlink" width="622" height="1061"><defs/><g><g/><g/><g/><g/><g/><g/><g/><g/><g/><g/><g/><g/><g/><g/><g/><g/><g/><g><rect fill="white" stroke="none" x="0" y="0" width="622" height="1061"/></g><g/><g><path fill="none" stroke="black" paint-order="fill stroke markers" d=" M 61.649658982 50.815047804 L 61.649658982 1061.9463051460004" stroke-miterlimit="10" stroke-width="1.2565541" stroke-dasharray="11.598960923076923,5.0262164"/><path fill="none" stroke="black" paint-order="fill stroke markers" d=" M 216.32605735729297 50.815047804 L 216.32605735729297 1061.9463051460004" stroke-miterlimit="10" stroke-width="1.2565541" stroke-dasharray="11.598960923076923,5.0262164"/><path fill="none" stroke="black" paint-order="fill stroke markers" d=" M 547.852469465496 50.815047804 L 547.852469465496 1061.9463051460004" stroke-miterlimit="10" stroke-width="1.2565541" stroke-dasharray="11.598960923076923,5.0262164"/></g><g><path fill="none" stroke="none"/><g><path fill="white" stroke="black" paint-order="fill stroke markers" d=" M 7.5393246000000005 10.102694964000001 L 115.759993364 10.102694964000001 L 115.759993364 50.815047804 L 7.5393246000000005 50.815047804 L 7.5393246000000005 10.102694964000001 Z" stroke-miterlimit="10" stroke-width="2.4125838720000004" stroke-dasharray=""/></g><g><g/><text fill="black" stroke="none" font-family="sans-serif" font-size="11pt" font-style="normal" font-weight="normal" text-decoration="normal" x="23.899658982" y="35.736398604" text-anchor="start" dominant-baseline="alphabetic" xml:space="preserve">Developer</text></g><path fill="none" stroke="none"/><g><path fill="white" stroke="black" paint-order="fill stroke markers" d=" M 160.94072144941407 10.102694964000001 L 271.71139326517186 10.102694964000001 L 271.71139326517186 50.815047804 L 160.94072144941407 50.815047804 L 160.94072144941407 10.102694964000001 Z" stroke-miterlimit="10" stroke-width="2.4125838720000004" stroke-dasharray=""/></g><g><g/><text fill="black" stroke="none" font-family="sans-serif" font-size="11pt" font-style="normal" font-weight="normal" text-decoration="normal" x="177.30105583141406" y="35.736398604" text-anchor="start" dominant-baseline="alphabetic" xml:space="preserve">Repository</text></g><path fill="none" stroke="none"/><g><path fill="white" stroke="black" paint-order="fill stroke markers" d=" M 481.15046790820304 10.102694964000001 L 614.554471022789 10.102694964000001 L 614.554471022789 50.815047804 L 481.15046790820304 50.815047804 L 481.15046790820304 10.102694964000001 Z" stroke-miterlimit="10" stroke-width="2.4125838720000004" stroke-dasharray=""/></g><g><g/><text fill="black" stroke="none" font-family="sans-serif" font-size="11pt" font-style="normal" font-weight="normal" text-decoration="normal" x="497.51080229020306" y="35.736398604" text-anchor="start" dominant-baseline="alphabetic" xml:space="preserve">Ansible Tower</text></g></g><g><g><g><rect fill="white" stroke="none" x="79.49272720199998" y="80.972346204" width="118.99026193529296" height="19.602243960000003"/></g><text fill="black" stroke="none" font-family="sans-serif" font-size="11pt" font-style="normal" font-weight="normal" text-decoration="normal" x="81.75452458199999" y="94.543130484" text-anchor="start" dominant-baseline="alphabetic" xml:space="preserve">change request</text></g><g><path fill="none" stroke="black" paint-order="fill stroke markers" d=" M 61.649658982 98.61466467582048 L 213.81294915729296 113.44832318979803" stroke-miterlimit="10" stroke-width="1.2565541" stroke-dasharray=""/><g transform="translate(216.32605735729297,113.69331387582048) rotate(5.567893256941317,0,0) translate(-216.32605735729297,-113.69331387582048)"><path fill="black" stroke="none" paint-order="stroke fill markers" d=" M 203.76051635729297 107.41054337582048 L 216.32605735729297 113.69331387582048 L 203.76051635729297 119.97608437582048 Z"/><g transform="rotate(-5.567893256941317,0,0)"/></g></g><path fill="white" stroke="black" paint-order="fill stroke markers" d=" M 121.75761260082812 136.31128767582047 L 297.3237178337578 136.31128767582047 L 310.8945021137578 149.88207195582046 L 310.8945021137578 170.99218083582048 L 121.75761260082812 170.99218083582048 L 121.75761260082812 136.31128767582047 M 297.3237178337578 136.31128767582047 L 297.3237178337578 149.88207195582046 L 310.8945021137578 149.88207195582046" stroke-miterlimit="10" stroke-width="1.2565541" stroke-dasharray=""/><g><text fill="black" stroke="none" font-family="sans-serif" font-size="11pt" font-style="normal" font-weight="normal" text-decoration="normal" x="142.86772148082812" y="157.42139655582048" text-anchor="start" dominant-baseline="alphabetic" xml:space="preserve">pipeline is triggered</text></g><g><g><rect fill="white" stroke="none" x="234.169125577293" y="193.6101546358205" width="50.440262698232424" height="19.602243960000003"/></g><text fill="black" stroke="none" font-family="sans-serif" font-size="11pt" font-style="normal" font-weight="normal" text-decoration="normal" x="236.43092295729298" y="207.1809389158205" text-anchor="start" dominant-baseline="alphabetic" xml:space="preserve">linting</text></g><g><path fill="none" stroke="black" paint-order="fill stroke markers" d=" M 216.32605735729297 213.21239859582047 L 276.64065415729294 213.21239859582047 L 276.64065415729294 232.81464255582048 L 218.83916555729297 232.81464255582048" stroke-miterlimit="10" stroke-width="1.2565541" stroke-dasharray=""/><g transform="translate(216.32605735729297,232.81464255582048) translate(-216.32605735729297,-232.81464255582048)"><path fill="black" stroke="none" paint-order="stroke fill markers" d=" M 228.89159835729296 226.5318720558205 L 216.32605735729297 232.81464255582048 L 228.89159835729296 239.09741305582048 Z"/></g></g><g><g><rect fill="white" stroke="none" x="234.169125577293" y="255.43261635582047" width="77.10693063646484" height="19.602243960000003"/></g><text fill="black" stroke="none" font-family="sans-serif" font-size="11pt" font-style="normal" font-weight="normal" text-decoration="normal" x="236.43092295729298" y="269.00340063582047" text-anchor="start" dominant-baseline="alphabetic" xml:space="preserve">validating</text></g><g><path fill="none" stroke="black" paint-order="fill stroke markers" d=" M 216.32605735729297 275.0348603158205 L 276.64065415729294 275.0348603158205 L 276.64065415729294 294.6371042758205 L 218.83916555729297 294.6371042758205" stroke-miterlimit="10" stroke-width="1.2565541" stroke-dasharray=""/><g transform="translate(216.32605735729297,294.6371042758205) translate(-216.32605735729297,-294.6371042758205)"><path fill="black" stroke="none" paint-order="stroke fill markers" d=" M 228.89159835729296 288.35433377582046 L 216.32605735729297 294.6371042758205 L 228.89159835729296 300.9198747758205 Z"/></g></g><g><g><rect fill="white" stroke="none" x="300.13580038198046" y="317.2550780758205" width="163.90692605882813" height="19.602243960000003"/></g><text fill="black" stroke="none" font-family="sans-serif" font-size="11pt" font-style="normal" font-weight="normal" text-decoration="normal" x="302.3975977619805" y="330.8258623558205" text-anchor="start" dominant-baseline="alphabetic" xml:space="preserve">assets export request</text></g><g><path fill="none" stroke="black" paint-order="fill stroke markers" d=" M 216.32605735729297 332.94257341711216 L 545.339361265496 347.90692017976346" stroke-miterlimit="10" stroke-width="1.2565541" stroke-dasharray=""/><g transform="translate(547.852469465496,348.0212226171122) rotate(2.604160430867195,0,0) translate(-547.852469465496,-348.0212226171122)"><path fill="black" stroke="none" paint-order="stroke fill markers" d=" M 535.286928465496 341.73845211711216 L 547.852469465496 348.0212226171122 L 535.286928465496 354.3039931171122 Z"/><g transform="rotate(-2.604160430867195,0,0)"/></g></g><g><g><rect fill="white" stroke="none" x="313.06079580434374" y="370.6391964171122" width="138.05693521410157" height="19.602243960000003"/></g><text fill="black" stroke="none" font-family="sans-serif" font-size="11pt" font-style="normal" font-weight="normal" text-decoration="normal" x="315.32259318434376" y="384.2099806971122" text-anchor="start" dominant-baseline="alphabetic" xml:space="preserve">assets (yaml files)</text></g><g><path fill="none" stroke="black" paint-order="fill stroke markers" d=" M 547.852469465496 385.7388306868045 L 218.83916555729297 400.7031774494558" stroke-miterlimit="10" stroke-width="1.2565541" stroke-dasharray="6.03145968"/><g transform="translate(216.32605735729297,400.8174798868045) rotate(-2.604160430867195,0,0) translate(-216.32605735729297,-400.8174798868045)"><path fill="black" stroke="none" paint-order="stroke fill markers" d=" M 228.89159835729296 394.5347093868045 L 216.32605735729297 400.8174798868045 L 228.89159835729296 407.10025038680453 Z"/><g transform="rotate(2.604160430867195,0,0)"/></g></g><g><g><rect fill="white" stroke="none" x="234.169125577293" y="423.4354536868045" width="108.39026346117187" height="19.602243960000003"/></g><text fill="black" stroke="none" font-family="sans-serif" font-size="11pt" font-style="normal" font-weight="normal" text-decoration="normal" x="236.43092295729298" y="437.0062379668045" text-anchor="start" dominant-baseline="alphabetic" xml:space="preserve">differentiating</text></g><g><path fill="none" stroke="black" paint-order="fill stroke markers" d=" M 216.32605735729297 443.03769764680453 L 276.64065415729294 443.03769764680453 L 276.64065415729294 462.63994160680454 L 218.83916555729297 462.63994160680454" stroke-miterlimit="10" stroke-width="1.2565541" stroke-dasharray=""/><g transform="translate(216.32605735729297,462.63994160680454) translate(-216.32605735729297,-462.63994160680454)"><path fill="black" stroke="none" paint-order="stroke fill markers" d=" M 228.89159835729296 456.3571711068045 L 216.32605735729297 462.63994160680454 L 228.89159835729296 468.92271210680457 Z"/></g></g><g><g><rect fill="white" stroke="none" x="234.169125577293" y="485.2579154068045" width="295.8402756682031" height="19.602243960000003"/></g><text fill="black" stroke="none" font-family="sans-serif" font-size="11pt" font-style="normal" font-weight="normal" text-decoration="normal" x="236.43092295729298" y="498.8286996868045" text-anchor="start" dominant-baseline="alphabetic" xml:space="preserve">list all assets with specific label request</text></g><g><path fill="none" stroke="black" paint-order="fill stroke markers" d=" M 216.32605735729297 503.9457398680148 L 545.339361265496 518.9100866306661" stroke-miterlimit="10" stroke-width="1.2565541" stroke-dasharray=""/><g transform="translate(547.852469465496,519.0243890680148) rotate(2.604160430867195,0,0) translate(-547.852469465496,-519.0243890680148)"><path fill="black" stroke="none" paint-order="stroke fill markers" d=" M 535.286928465496 512.7416185680148 L 547.852469465496 519.0243890680148 L 535.286928465496 525.3071595680148 Z"/><g transform="rotate(-2.604160430867195,0,0)"/></g></g><g><g><rect fill="white" stroke="none" x="283.2691316808086" y="541.6423628680147" width="197.64026346117188" height="19.602243960000003"/></g><text fill="black" stroke="none" font-family="sans-serif" font-size="11pt" font-style="normal" font-weight="normal" text-decoration="normal" x="285.5309290608086" y="555.2131471480147" text-anchor="start" dominant-baseline="alphabetic" xml:space="preserve">asset list (array of strings)</text></g><g><path fill="none" stroke="black" paint-order="fill stroke markers" d=" M 547.852469465496 558.0969964258375 L 218.83916555729297 573.0613431884888" stroke-miterlimit="10" stroke-width="1.2565541" stroke-dasharray="6.03145968"/><g transform="translate(216.32605735729297,573.1756456258374) rotate(-2.604160430867195,0,0) translate(-216.32605735729297,-573.1756456258374)"><path fill="black" stroke="none" paint-order="stroke fill markers" d=" M 228.89159835729296 566.8928751258375 L 216.32605735729297 573.1756456258374 L 228.89159835729296 579.4584161258374 Z"/><g transform="rotate(2.604160430867195,0,0)"/></g></g><g><g><rect fill="white" stroke="none" x="234.169125577293" y="595.7936194258374" width="106.00692453294921" height="19.602243960000003"/></g><text fill="black" stroke="none" font-family="sans-serif" font-size="11pt" font-style="normal" font-weight="normal" text-decoration="normal" x="236.43092295729298" y="609.3644037058374" text-anchor="start" dominant-baseline="alphabetic" xml:space="preserve">synchronizing</text></g><g><path fill="none" stroke="black" paint-order="fill stroke markers" d=" M 216.32605735729297 615.3958633858374 L 276.64065415729294 615.3958633858374 L 276.64065415729294 634.9981073458374 L 218.83916555729297 634.9981073458374" stroke-miterlimit="10" stroke-width="1.2565541" stroke-dasharray=""/><g transform="translate(216.32605735729297,634.9981073458374) translate(-216.32605735729297,-634.9981073458374)"><path fill="black" stroke="none" paint-order="stroke fill markers" d=" M 228.89159835729296 628.7153368458374 L 216.32605735729297 634.9981073458374 L 228.89159835729296 641.2808778458374 Z"/></g></g><g><g><rect fill="white" stroke="none" x="300.13580038198046" y="657.6160811458374" width="163.90692605882813" height="19.602243960000003"/></g><text fill="black" stroke="none" font-family="sans-serif" font-size="11pt" font-style="normal" font-weight="normal" text-decoration="normal" x="302.3975977619805" y="671.1868654258374" text-anchor="start" dominant-baseline="alphabetic" xml:space="preserve">assets export request</text></g><g><path fill="none" stroke="black" paint-order="fill stroke markers" d=" M 216.32605735729297 673.3035764871291 L 545.339361265496 688.2679232497804" stroke-miterlimit="10" stroke-width="1.2565541" stroke-dasharray=""/><g transform="translate(547.852469465496,688.3822256871291) rotate(2.604160430867195,0,0) translate(-547.852469465496,-688.3822256871291)"><path fill="black" stroke="none" paint-order="stroke fill markers" d=" M 535.286928465496 682.0994551871291 L 547.852469465496 688.3822256871291 L 535.286928465496 694.6649961871291 Z"/><g transform="rotate(-2.604160430867195,0,0)"/></g></g><g><g><rect fill="white" stroke="none" x="313.06079580434374" y="711.0001994871291" width="138.05693521410157" height="19.602243960000003"/></g><text fill="black" stroke="none" font-family="sans-serif" font-size="11pt" font-style="normal" font-weight="normal" text-decoration="normal" x="315.32259318434376" y="724.5709837671291" text-anchor="start" dominant-baseline="alphabetic" xml:space="preserve">assets (yaml files)</text></g><g><path fill="none" stroke="black" paint-order="fill stroke markers" d=" M 547.852469465496 726.0998337568215 L 218.83916555729297 741.0641805194728" stroke-miterlimit="10" stroke-width="1.2565541" stroke-dasharray="6.03145968"/><g transform="translate(216.32605735729297,741.1784829568214) rotate(-2.604160430867195,0,0) translate(-216.32605735729297,-741.1784829568214)"><path fill="black" stroke="none" paint-order="stroke fill markers" d=" M 228.89159835729296 734.8957124568215 L 216.32605735729297 741.1784829568214 L 228.89159835729296 747.4612534568214 Z"/><g transform="rotate(2.604160430867195,0,0)"/></g></g><path fill="white" stroke="black" paint-order="fill stroke markers" d=" M 91.2242797761211 763.7964567568215 L 327.85705065846486 763.7964567568215 L 341.42783493846485 777.3672410368215 L 341.42783493846485 798.4773499168215 L 91.2242797761211 798.4773499168215 L 91.2242797761211 763.7964567568215 M 327.85705065846486 763.7964567568215 L 327.85705065846486 777.3672410368215 L 341.42783493846485 777.3672410368215" stroke-miterlimit="10" stroke-width="1.2565541" stroke-dasharray=""/><g><text fill="black" stroke="none" font-family="sans-serif" font-size="11pt" font-style="normal" font-weight="normal" text-decoration="normal" x="112.33438865612109" y="784.9065656368215" text-anchor="start" dominant-baseline="alphabetic" xml:space="preserve">assets are saved to artifacts</text></g><g><g><rect fill="white" stroke="none" x="322.59413244374804" y="821.0953237168214" width="118.99026193529296" height="19.602243960000003"/></g><text fill="black" stroke="none" font-family="sans-serif" font-size="11pt" font-style="normal" font-weight="normal" text-decoration="normal" x="324.85592982374806" y="834.6661079968214" text-anchor="start" dominant-baseline="alphabetic" xml:space="preserve">(re)write assets</text></g><g><path fill="none" stroke="black" paint-order="fill stroke markers" d=" M 216.32605735729297 835.76135802693 L 545.339361265496 850.7257047895813" stroke-miterlimit="10" stroke-width="1.2565541" stroke-dasharray=""/><g transform="translate(547.852469465496,850.84000722693) rotate(2.604160430867195,0,0) translate(-547.852469465496,-850.84000722693)"><path fill="black" stroke="none" paint-order="stroke fill markers" d=" M 535.286928465496 844.55723672693 L 547.852469465496 850.84000722693 L 535.286928465496 857.1227777269299 Z"/><g transform="rotate(-2.604160430867195,0,0)"/></g></g><g><g><rect fill="white" stroke="none" x="369.2441330159526" y="873.4579810269299" width="25.69026079088379" height="19.602243960000003"/></g><text fill="black" stroke="none" font-family="sans-serif" font-size="11pt" font-style="normal" font-weight="normal" text-decoration="normal" x="371.50593039595265" y="887.0287653069299" text-anchor="start" dominant-baseline="alphabetic" xml:space="preserve">OK</text></g><g><path fill="none" stroke="black" paint-order="fill stroke markers" d=" M 547.852469465496 886.0022568040306 L 218.83916555729297 900.9666035666819" stroke-miterlimit="10" stroke-width="1.2565541" stroke-dasharray="6.03145968"/><g transform="translate(216.32605735729297,901.0809060040306) rotate(-2.604160430867195,0,0) translate(-216.32605735729297,-901.0809060040306)"><path fill="black" stroke="none" paint-order="stroke fill markers" d=" M 228.89159835729296 894.7981355040306 L 216.32605735729297 901.0809060040306 L 228.89159835729296 907.3636765040305 Z"/><g transform="rotate(2.604160430867195,0,0)"/></g></g><path fill="white" stroke="black" paint-order="fill stroke markers" d=" M 134.79928053906053 923.6988798040306 L 284.28204989552535 923.6988798040306 L 297.85283417552535 937.2696640840306 L 297.85283417552535 958.3797729640306 L 134.79928053906053 958.3797729640306 L 134.79928053906053 923.6988798040306 M 284.28204989552535 923.6988798040306 L 284.28204989552535 937.2696640840306 L 297.85283417552535 937.2696640840306" stroke-miterlimit="10" stroke-width="1.2565541" stroke-dasharray=""/><g><text fill="black" stroke="none" font-family="sans-serif" font-size="11pt" font-style="normal" font-weight="normal" text-decoration="normal" x="155.90938941906055" y="944.8089886840306" text-anchor="start" dominant-baseline="alphabetic" xml:space="preserve">pipeline finished</text></g><g><g><rect fill="white" stroke="none" x="126.14272777420457" y="980.9977467640306" width="25.69026079088379" height="19.602243960000003"/></g><text fill="black" stroke="none" font-family="sans-serif" font-size="11pt" font-style="normal" font-weight="normal" text-decoration="normal" x="128.40452515420458" y="994.5685310440306" text-anchor="start" dominant-baseline="alphabetic" xml:space="preserve">OK</text></g><g><path fill="none" stroke="black" paint-order="fill stroke markers" d=" M 216.32605735729297 994.0923837460006 L 64.162767182 1008.9260422599781" stroke-miterlimit="10" stroke-width="1.2565541" stroke-dasharray="6.03145968"/><g transform="translate(61.649658982,1009.1710329460005) rotate(-5.567893256941317,0,0) translate(-61.649658982,-1009.1710329460005)"><path fill="black" stroke="none" paint-order="stroke fill markers" d=" M 74.215199982 1002.8882624460006 L 61.649658982 1009.1710329460005 L 74.215199982 1015.4538034460005 Z"/><g transform="rotate(5.567893256941317,0,0)"/></g></g></g><g/><g/><g/></g></svg>